<?xml version="1.0" encoding="UTF-8" standalone="no"?>
<svg
   xmlns:dc="http://purl.org/dc/elements/1.1/"
   xmlns:cc="http://creativecommons.org/ns#"
   xmlns:rdf="http://www.w3.org/1999/02/22-rdf-syntax-ns#"
   xmlns:svg="http://www.w3.org/2000/svg"
   xmlns="http://www.w3.org/2000/svg"
   xmlns:sodipodi="http://sodipodi.sourceforge.net/DTD/sodipodi-0.dtd"
   xmlns:inkscape="http://www.inkscape.org/namespaces/inkscape"
   inkscape:version="1.0 (4035a4fb49, 2020-05-01)"
   height="487.061"
   width="454.47101"
   sodipodi:docname="insertPlayer.svg"
   id="svg16"
   xml:space="preserve"
   viewBox="0 0 454.47101 487.061"
   y="0px"
   x="0px"
   version="1.1"><metadata
     id="metadata22"><rdf:RDF><cc:Work
         rdf:about=""><dc:format>image/svg+xml</dc:format><dc:type
           rdf:resource="http://purl.org/dc/dcmitype/StillImage" /><dc:title></dc:title></cc:Work></rdf:RDF></metadata><defs
     id="defs20" /><sodipodi:namedview
     inkscape:current-layer="svg16"
     inkscape:window-maximized="1"
     inkscape:window-y="27"
     inkscape:window-x="3840"
     inkscape:cy="309.85146"
     inkscape:cx="144.34778"
     inkscape:zoom="2.2273864"
     fit-margin-bottom="0"
     fit-margin-right="0"
     fit-margin-left="0"
     fit-margin-top="0"
     showgrid="false"
     id="namedview18"
     inkscape:window-height="2096"
     inkscape:window-width="3840"
     inkscape:pageshadow="2"
     inkscape:pageopacity="0"
     guidetolerance="10"
     gridtolerance="10"
     objecttolerance="10"
     borderopacity="1"
     bordercolor="#666666"
     pagecolor="#ffffff" /><g
     transform="translate(-29.233,-12.938)"
     id="g10"><g
       id="g8"><path
         id="path2"
         d="m 409.953,327.495 c -28.88,-10.671 -62.352,-18.063 -96.796,-21.38 -2.197,-0.218 -4.153,1.397 -4.365,3.598 -0.212,2.199 1.399,4.153 3.598,4.365 33.77,3.251 66.547,10.485 94.733,20.899 44.226,17.116 68.582,40.795 68.582,66.674 0,25.882 -24.356,49.563 -68.542,66.665 -40.758,15.272 -94.283,23.683 -150.718,23.683 -56.435,0 -109.96,-8.41 -150.676,-23.667 -44.196,-17.115 -68.536,-40.796 -68.536,-66.681 0,-25.881 24.34,-49.56 68.511,-66.664 24.474,-9.287 57.024,-16.521 94.133,-20.918 2.194,-0.261 3.761,-2.25 3.501,-4.443 -0.26,-2.193 -2.244,-3.753 -4.443,-3.502 -37.749,4.474 -70.955,11.868 -96.055,21.393 -47.492,18.391 -73.647,44.719 -73.647,74.135 0,29.419 26.155,55.749 73.688,74.157 41.632,15.6 96.154,24.19 153.524,24.19 57.369,0 111.892,-8.591 153.564,-24.206 47.523,-18.394 73.695,-44.725 73.695,-74.142 10e-4,-29.414 -26.171,-55.742 -73.751,-74.156 z" /><path
         id="path4"
         d="m 181.128,244.331 c 0,0 0.003,0 0.003,0 3.967,-10e-4 7.938,-1.096 11.802,-3.254 0.703,-0.393 1.271,-0.988 1.63,-1.708 l 0.714,-1.433 c 3.389,-6.802 6.844,-13.735 10.19,-20.696 0.498,47.525 0.74,98.503 0.74,155.207 0,5.915 4.804,10.728 10.709,10.728 h 23.439 c 5.915,0 10.727,-4.813 10.727,-10.728 0,-19.26 0.058,-38.999 0.114,-58.089 0.053,-17.867 0.107,-36.302 0.114,-54.459 h 10.288 c 0.008,18.158 0.063,36.592 0.117,54.459 0.057,19.09 0.117,38.83 0.117,58.089 0,5.915 4.812,10.728 10.727,10.728 h 23.415 c 5.931,0 10.757,-4.813 10.757,-10.728 0,-57.733 0.234,-108.714 0.718,-155.189 3.678,7.661 7.428,15.162 10.904,22.116 0.359,0.718 0.926,1.311 1.626,1.702 3.862,2.16 7.83,3.255 11.795,3.255 7.337,0 14.406,-3.903 18.912,-10.441 3.85,-5.587 5.031,-11.856 3.159,-16.771 -0.023,-0.062 -0.049,-0.122 -0.075,-0.182 -6.425,-14.66 -13.143,-29.544 -19.639,-43.937 -6.313,-13.987 -12.841,-28.45 -19.086,-42.677 -0.101,-0.229 -0.223,-0.447 -0.363,-0.653 -13.504,-19.706 -35.483,-22.232 -53.123,-22.232 -1.622,0 -3.334,0.025 -5.09,0.075 -1.76,-0.05 -3.475,-0.075 -5.1,-0.075 -17.66,0 -39.659,2.527 -53.139,22.235 -0.14,0.205 -0.261,0.423 -0.361,0.65 -6.357,14.482 -13.005,29.205 -19.434,43.442 -6.386,14.142 -12.988,28.765 -19.314,43.168 -0.028,0.063 -0.054,0.127 -0.078,0.192 -1.836,4.85 -0.615,11.281 3.188,16.786 4.506,6.526 11.57,10.42 18.897,10.42 z" /><path
         id="path6"
         d="m 259.257,95.557 c 23.178,0 41.333,-18.145 41.333,-41.309 0,-23.164 -18.155,-41.31 -41.333,-41.31 -23.167,0 -42.014,18.531 -42.014,41.31 0,22.777 18.847,41.309 42.014,41.309 z" /></g></g></svg>
